<svg width="105" height="43" viewBox="0 0 105 43" fill="none" xmlns="http://www.w3.org/2000/svg">
<g filter="url(#filter0_d_230_22229)">
<path d="M16.2787 6.56271H14.1395V7.6323H16.2787V6.56271Z" fill="black"/>
<path d="M16.2787 8.70187H14.1395V9.77146H16.2787V8.70187Z" fill="black"/>
<path d="M16.2787 10.841H14.1395V11.9106H16.2787V10.841Z" fill="black"/>
<path d="M23.7658 7.0975H22.6962C22.6959 7.38107 22.5831 7.65293 22.3826 7.85344C22.1821 8.05396 21.9102 8.16675 21.6266 8.16709V9.23667C22.1938 9.23603 22.7375 9.01045 23.1386 8.60942C23.5396 8.20839 23.7652 7.66465 23.7658 7.0975Z" fill="black"/>
<path d="M26.4398 9.77146V8.70188C26.1563 8.70154 25.8844 8.58875 25.6839 8.38823C25.4834 8.18772 25.3706 7.91586 25.3702 7.63229H24.3007C24.3013 8.19944 24.5269 8.74318 24.9279 9.14421C25.3289 9.54524 25.8727 9.77082 26.4398 9.77146Z" fill="black"/>
<path d="M32.0545 33.0505C31.1517 33.2146 30.2308 33.2557 29.3169 33.1728L20.0182 32.3274C19.8687 32.3138 19.7303 32.2431 19.6316 32.13C19.5329 32.0169 19.4816 31.8701 19.4884 31.7202C19.4952 31.5703 19.5595 31.4287 19.6679 31.325C19.7764 31.2212 19.9207 31.1633 20.0707 31.1632H27.2419C27.5965 31.1626 27.9365 31.0214 28.1871 30.7705C28.4378 30.5196 28.5787 30.1796 28.5789 29.8249V29.8124C28.5783 29.5314 28.4871 29.2581 28.3189 29.033L27.0944 27.401C27.0168 27.2972 26.9748 27.1711 26.9745 27.0415V26.9497C26.9745 26.8311 27.0097 26.7152 27.0756 26.6166C27.1414 26.518 27.2351 26.4411 27.3447 26.3957C27.4542 26.3503 27.5748 26.3385 27.6911 26.3616C27.8075 26.3847 27.9143 26.4418 27.9982 26.5257L30.3399 28.8674C30.3896 28.917 30.4485 28.9564 30.5134 28.9833C30.5783 29.0102 30.6478 29.024 30.7181 29.024H36.6008V27.9544H30.9395L28.7546 25.7693C28.6996 25.7145 28.6409 25.6634 28.5789 25.6166V13.515C28.5789 13.3732 28.5225 13.2372 28.4223 13.1369C28.322 13.0366 28.1859 12.9802 28.0441 12.9802H27.5093V11.3759H28.3115C28.8079 11.3759 29.284 11.1787 29.635 10.8276C29.9861 10.4766 30.1833 10.0005 30.1833 9.50409C30.1833 9.00766 29.9861 8.53157 29.635 8.18054C29.284 7.82952 28.8079 7.63231 28.3115 7.63231H28.2562C28.524 7.31148 28.6616 6.90191 28.6421 6.48449C28.6225 6.06708 28.4471 5.67218 28.1505 5.37783C27.8539 5.08347 27.4576 4.91105 27.0401 4.89464C26.6225 4.87823 26.214 5.01902 25.8952 5.28919C25.8446 4.75947 25.5984 4.26763 25.2047 3.9097C24.8109 3.55176 24.2979 3.35343 23.7658 3.35343C23.2336 3.35343 22.7206 3.55176 22.3269 3.9097C21.9331 4.26763 21.6869 4.75947 21.6363 5.28919C21.3175 5.01902 20.909 4.87823 20.4914 4.89464C20.0739 4.91105 19.6777 5.08347 19.3811 5.37783C19.0845 5.67218 18.909 6.06708 18.8895 6.48449C18.8699 6.90191 19.0076 7.31148 19.2753 7.63231H19.22C18.9425 7.63206 18.6684 7.69389 18.4178 7.81327V5.49315C18.4178 4.64213 18.0798 3.82597 17.478 3.22422C16.8763 2.62246 16.0601 2.28439 15.2091 2.28439C14.3581 2.28439 13.5419 2.62246 12.9402 3.22422C12.3384 3.82597 12.0003 4.64213 12.0003 5.49315V12.9802H11.4655C11.3237 12.9802 11.1877 13.0366 11.0874 13.1369C10.9871 13.2372 10.9307 13.3732 10.9307 13.515V15.8666L8.05898 18.3282H4.51324V19.3977H8.25679C8.38444 19.3977 8.50788 19.3521 8.6048 19.269L11.7045 16.6121C12.0231 16.3392 12.4289 16.1891 12.8484 16.189C12.8923 16.189 12.9351 16.202 12.9715 16.2263C13.0079 16.2507 13.0363 16.2853 13.0531 16.3257C13.0698 16.3662 13.0742 16.4107 13.0656 16.4537C13.0571 16.4967 13.036 16.5361 13.005 16.5671L11.0874 18.4848C11.0126 18.5596 10.9616 18.6549 10.941 18.7586C10.9204 18.8624 10.931 18.9699 10.9714 19.0676C11.0119 19.1653 11.0805 19.2489 11.1684 19.3076C11.2564 19.3664 11.3598 19.3977 11.4655 19.3977H17.0809C17.1518 19.3977 17.2198 19.4259 17.2699 19.4761C17.3201 19.5262 17.3483 19.5942 17.3483 19.6651C17.3483 19.7361 17.3201 19.8041 17.2699 19.8542C17.2198 19.9044 17.1518 19.9325 17.0809 19.9325H13.0699C12.9281 19.9325 12.7921 19.9889 12.6918 20.0892C12.5915 20.1895 12.5351 20.3255 12.5351 20.4673C12.5351 20.6092 12.5915 20.7452 12.6918 20.8455C12.7921 20.9458 12.9281 21.0021 13.0699 21.0021H18.6852C18.7562 21.0021 18.8242 21.0303 18.8743 21.0804C18.9245 21.1306 18.9526 21.1986 18.9526 21.2695C18.9526 21.3404 18.9245 21.4084 18.8743 21.4586C18.8242 21.5087 18.7562 21.5369 18.6852 21.5369H13.0699C12.9281 21.5369 12.7921 21.5933 12.6918 21.6935C12.5915 21.7938 12.5351 21.9299 12.5351 22.0717C12.5351 22.2135 12.5915 22.3496 12.6918 22.4499C12.7921 22.5501 12.9281 22.6065 13.0699 22.6065H17.6157C17.6866 22.6065 17.7546 22.6347 17.8047 22.6848C17.8549 22.735 17.883 22.803 17.883 22.8739C17.883 22.9448 17.8549 23.0128 17.8047 23.063C17.7546 23.1131 17.6866 23.1413 17.6157 23.1413H13.0699C12.9281 23.1413 12.7921 23.1976 12.6918 23.2979C12.5915 23.3982 12.5351 23.5342 12.5351 23.6761C12.5351 23.8179 12.5915 23.9539 12.6918 24.0542C12.7921 24.1545 12.9281 24.2109 13.0699 24.2109H15.7105C15.7187 24.2113 15.7264 24.2147 15.7323 24.2205C15.7381 24.2263 15.7417 24.234 15.7422 24.2422C15.7427 24.2504 15.7401 24.2585 15.735 24.265C15.7299 24.2714 15.7226 24.2758 15.7145 24.2772L12.0422 24.7362L8.40386 23.6967C8.35603 23.683 8.30653 23.6761 8.25679 23.6761H4.51324V24.7457H8.18192L10.9307 25.5311V30.6284H10.932C10.9315 30.6986 10.945 30.7683 10.9716 30.8333C10.9982 30.8984 11.0375 30.9575 11.0871 31.0072C11.1367 31.0569 11.1957 31.0963 11.2607 31.1231C11.3256 31.1499 11.3953 31.1635 11.4655 31.1632H18.5248C18.4348 31.4014 18.4011 31.6573 18.4263 31.9107C18.4515 32.1642 18.535 32.4084 18.6702 32.6242C18.8055 32.8401 18.9887 33.0217 19.2058 33.155C19.4228 33.2883 19.6677 33.3696 19.9214 33.3926L29.22 34.2382C29.5584 34.2691 29.8973 34.2845 30.2367 34.2844C30.9105 34.2844 31.5829 34.2238 32.2458 34.1033L36.6964 33.294L36.5051 32.2417L32.0545 33.0505ZM17.3483 10.8411C17.3484 10.6993 17.4048 10.5633 17.5051 10.4631C17.6053 10.3628 17.7413 10.3064 17.883 10.3063H18.9526C19.5198 10.3069 20.0635 10.5325 20.4645 10.9335C20.8656 11.3346 21.0912 11.8783 21.0918 12.4454C21.0916 12.5872 21.0352 12.7232 20.935 12.8234C20.8347 12.9237 20.6988 12.9801 20.557 12.9802H19.4874C18.9203 12.9796 18.3765 12.754 17.9755 12.353C17.5745 11.952 17.3489 11.4082 17.3483 10.8411ZM19.22 8.7019H20.557C20.6628 8.7019 20.7662 8.67054 20.8541 8.61178C20.9421 8.55301 21.0106 8.46949 21.0511 8.37176C21.0916 8.27404 21.1022 8.16651 21.0815 8.06277C21.0609 7.95903 21.01 7.86373 20.9352 7.78894L20.133 6.98675C20.0773 6.93107 20.0331 6.86496 20.003 6.79221C19.9729 6.71946 19.9573 6.64148 19.9573 6.56273C19.9573 6.48398 19.9729 6.406 20.003 6.33325C20.0331 6.2605 20.0773 6.19439 20.133 6.13871C20.1887 6.08302 20.2548 6.03885 20.3275 6.00872C20.4003 5.97858 20.4783 5.96307 20.557 5.96307C20.6358 5.96307 20.7137 5.97858 20.7865 6.00872C20.8592 6.03885 20.9253 6.08302 20.981 6.13871L21.7832 6.94089C21.858 7.01569 21.9533 7.06663 22.057 7.08726C22.1608 7.1079 22.2683 7.09731 22.366 7.05683C22.4638 7.01635 22.5473 6.9478 22.6061 6.85985C22.6648 6.7719 22.6962 6.6685 22.6962 6.56273V5.49315C22.6962 5.20947 22.8089 4.93742 23.0094 4.73684C23.21 4.53625 23.4821 4.42356 23.7658 4.42356C24.0494 4.42356 24.3215 4.53625 24.5221 4.73684C24.7227 4.93742 24.8353 5.20947 24.8353 5.49315V6.56273C24.8353 6.6685 24.8667 6.7719 24.9255 6.85985C24.9842 6.9478 25.0678 7.01635 25.1655 7.05683C25.2632 7.09731 25.3707 7.1079 25.4745 7.08726C25.5782 7.06663 25.6735 7.01569 25.7483 6.94089L26.5505 6.13871C26.6062 6.08302 26.6723 6.03885 26.745 6.00872C26.8178 5.97858 26.8958 5.96307 26.9745 5.96307C27.0533 5.96307 27.1312 5.97858 27.204 6.00872C27.2767 6.03885 27.3428 6.08302 27.3985 6.13871C27.4542 6.19439 27.4984 6.2605 27.5285 6.33325C27.5587 6.406 27.5742 6.48398 27.5742 6.56273C27.5742 6.64148 27.5587 6.71946 27.5285 6.79221C27.4984 6.86496 27.4542 6.93107 27.3985 6.98675L26.5963 7.78894C26.5215 7.86373 26.4706 7.95903 26.45 8.06277C26.4293 8.16651 26.4399 8.27404 26.4804 8.37176C26.5209 8.46949 26.5894 8.55301 26.6774 8.61178C26.7653 8.67054 26.8687 8.7019 26.9745 8.7019H28.3115C28.5242 8.7019 28.7283 8.78641 28.8787 8.93685C29.0292 9.08729 29.1137 9.29133 29.1137 9.50409C29.1137 9.71684 29.0292 9.92088 28.8787 10.0713C28.7283 10.2218 28.5242 10.3063 28.3115 10.3063H26.9745C26.8327 10.3063 26.6966 10.3626 26.5964 10.4629C26.4961 10.5632 26.4397 10.6992 26.4397 10.8411V11.1259C25.8157 10.5655 24.9967 10.2723 24.1588 10.3094C23.3208 10.3466 22.531 10.711 21.959 11.3245C21.7298 10.7119 21.3192 10.1839 20.782 9.81081C20.2448 9.43776 19.6066 9.23747 18.9526 9.23669H18.4646C18.52 9.08049 18.6223 8.94524 18.7575 8.84949C18.8928 8.75374 19.0543 8.70218 19.22 8.7019ZM26.372 12.9802H22.2291C22.3475 12.5209 22.6153 12.1139 22.9903 11.8233C23.3652 11.5327 23.8262 11.375 24.3006 11.375C24.7749 11.375 25.2359 11.5327 25.6108 11.8233C25.9858 12.1139 26.2536 12.5209 26.372 12.9802ZM13.0699 5.49315C13.0699 4.9258 13.2953 4.3817 13.6965 3.98053C14.0976 3.57935 14.6417 3.35398 15.2091 3.35398C15.7764 3.35398 16.3205 3.57935 16.7217 3.98053C17.1229 4.3817 17.3483 4.9258 17.3483 5.49315V9.32867C17.0357 9.43958 16.7651 9.64448 16.5736 9.91525C16.3821 10.186 16.2791 10.5094 16.2787 10.8411C16.2781 11.6309 16.5701 12.393 17.0983 12.9802H13.0699V5.49315ZM14.1395 14.0498H15.2091V18.3282H14.1395V14.0498ZM12.8484 15.1194C12.5607 15.1195 12.2747 15.1636 12.0003 15.25V14.0498H13.0699V15.1398C12.9968 15.1267 12.9227 15.1198 12.8484 15.1194ZM13.0699 18.0149V18.3282H12.7566L13.0699 18.0149ZM14.1395 25.552L15.2091 25.4183V29.3372L14.1395 28.2676V25.552ZM12.0666 25.8111L13.0699 25.6857V28.2677L12.0003 29.3373V25.8152C12.0225 25.8152 12.0447 25.8138 12.0666 25.8111ZM12.7566 30.0936L13.6047 29.2455L14.4528 30.0936H12.7566ZM16.2787 25.1879C16.4415 25.09 16.5763 24.9516 16.67 24.7863C16.7637 24.6209 16.8131 24.4342 16.8135 24.2442C16.8135 24.233 16.8135 24.2219 16.8129 24.2107H17.6157C17.8157 24.2106 18.0131 24.1657 18.1935 24.0792C18.3738 23.9927 18.5325 23.8668 18.6578 23.7109C18.7831 23.5549 18.8718 23.3729 18.9174 23.1781C18.963 22.9834 18.9643 22.7809 18.9213 22.5855C19.2502 22.5265 19.545 22.3466 19.7478 22.0811C19.9506 21.8156 20.0467 21.4838 20.0171 21.151C19.9875 20.8182 19.8343 20.5086 19.5878 20.2831C19.3413 20.0576 19.0193 19.9325 18.6852 19.9325H18.3911C18.4306 19.7383 18.4264 19.5377 18.3789 19.3452C18.3313 19.1528 18.2416 18.9733 18.1162 18.8198C17.9909 18.6663 17.8329 18.5425 17.6539 18.4575C17.4748 18.3725 17.2791 18.3283 17.0809 18.3282H16.2787V14.0498H27.5093V25.2821C27.0784 25.2994 26.6708 25.4825 26.3718 25.7933C26.0728 26.1041 25.9055 26.5185 25.9049 26.9497V27.0415C25.9057 27.4026 26.0229 27.7538 26.2392 28.0431L27.4636 29.6748C27.4933 29.7146 27.5094 29.7628 27.5095 29.8124V29.8249C27.5096 29.896 27.4815 29.9642 27.4313 30.0146C27.3811 30.065 27.313 30.0934 27.2419 30.0936H16.2787V25.1879Z" fill="black"/>
<path d="M49.2378 14.2844V3.62033H52.248C53.1758 3.62033 53.9961 3.82541 54.709 4.23557C55.4219 4.64572 55.9712 5.22922 56.3569 5.98605C56.7476 6.74289 56.9453 7.61203 56.9502 8.59348V9.27463C56.9502 10.2805 56.7549 11.1618 56.3643 11.9187C55.9785 12.6755 55.4243 13.2566 54.7017 13.6618C53.9839 14.0671 53.1465 14.2746 52.1895 14.2844H49.2378ZM50.644 4.77756V13.1345H52.1235C53.2075 13.1345 54.0498 12.7976 54.6504 12.1237C55.2559 11.4499 55.5586 10.4904 55.5586 9.24533V8.62277C55.5586 7.41183 55.2729 6.47189 54.7017 5.80295C54.1353 5.12912 53.3296 4.78732 52.2847 4.77756H50.644ZM62.1577 14.4309C61.0835 14.4309 60.2095 14.0793 59.5356 13.3762C58.8618 12.6682 58.5249 11.7234 58.5249 10.5417V10.2927C58.5249 9.50656 58.6738 8.80588 58.9717 8.19064C59.2744 7.57053 59.6943 7.08713 60.2314 6.74045C60.7734 6.38889 61.3594 6.2131 61.9893 6.2131C63.0195 6.2131 63.8203 6.55246 64.3916 7.23117C64.9629 7.90988 65.2485 8.88156 65.2485 10.1462V10.7102H59.8799C59.8994 11.4914 60.1265 12.1237 60.561 12.6071C61.0005 13.0857 61.5571 13.3249 62.231 13.3249C62.7095 13.3249 63.1147 13.2273 63.4468 13.032C63.7788 12.8366 64.0693 12.5779 64.3184 12.2556L65.146 12.9001C64.4819 13.9206 63.4858 14.4309 62.1577 14.4309ZM61.9893 7.32639C61.4424 7.32639 60.9834 7.52658 60.6123 7.92697C60.2412 8.32248 60.0117 8.87912 59.9238 9.59689H63.8936V9.49435C63.8545 8.80588 63.6689 8.27365 63.3369 7.89767C63.0049 7.51682 62.5557 7.32639 61.9893 7.32639ZM68.2954 14.2844H66.9404V3.03439H68.2954V14.2844ZM71.9429 14.2844H70.5879V6.35959H71.9429V14.2844ZM70.478 4.25754C70.478 4.03781 70.5439 3.85226 70.6758 3.7009C70.8125 3.54953 71.0127 3.47385 71.2764 3.47385C71.54 3.47385 71.7402 3.54953 71.877 3.7009C72.0137 3.85226 72.082 4.03781 72.082 4.25754C72.082 4.47726 72.0137 4.66037 71.877 4.80685C71.7402 4.95334 71.54 5.02658 71.2764 5.02658C71.0127 5.02658 70.8125 4.95334 70.6758 4.80685C70.5439 4.66037 70.478 4.47726 70.478 4.25754ZM76.7329 12.446L78.6958 6.35959H80.0801L77.2383 14.2844H76.2056L73.3345 6.35959H74.7188L76.7329 12.446ZM84.5698 14.4309C83.4956 14.4309 82.6216 14.0793 81.9478 13.3762C81.2739 12.6682 80.937 11.7234 80.937 10.5417V10.2927C80.937 9.50656 81.0859 8.80588 81.3838 8.19064C81.6865 7.57053 82.1064 7.08713 82.6436 6.74045C83.1855 6.38889 83.7715 6.2131 84.4014 6.2131C85.4316 6.2131 86.2324 6.55246 86.8037 7.23117C87.375 7.90988 87.6606 8.88156 87.6606 10.1462V10.7102H82.292C82.3115 11.4914 82.5386 12.1237 82.9731 12.6071C83.4126 13.0857 83.9692 13.3249 84.6431 13.3249C85.1216 13.3249 85.5269 13.2273 85.8589 13.032C86.1909 12.8366 86.4814 12.5779 86.7305 12.2556L87.5581 12.9001C86.894 13.9206 85.8979 14.4309 84.5698 14.4309ZM84.4014 7.32639C83.8545 7.32639 83.3955 7.52658 83.0244 7.92697C82.6533 8.32248 82.4238 8.87912 82.3359 9.59689H86.3057V9.49435C86.2666 8.80588 86.0811 8.27365 85.749 7.89767C85.417 7.51682 84.9678 7.32639 84.4014 7.32639ZM93.0659 7.57541C92.8608 7.54123 92.6387 7.52414 92.3994 7.52414C91.5107 7.52414 90.9077 7.90256 90.5903 8.65939V14.2844H89.2354V6.35959H90.5537L90.5757 7.27512C91.02 6.56711 91.6499 6.2131 92.4653 6.2131C92.729 6.2131 92.9292 6.24728 93.0659 6.31564V7.57541ZM97.043 12.2995L98.8887 6.35959H100.339L97.1528 15.5075C96.6597 16.8259 95.876 17.4851 94.8018 17.4851L94.5454 17.4631L94.04 17.3679V16.2693L94.4062 16.2986C94.8652 16.2986 95.2217 16.2058 95.4756 16.0202C95.7344 15.8347 95.9468 15.4953 96.1128 15.0022L96.4131 14.1965L93.5859 6.35959H95.0654L97.043 12.2995ZM55.1191 27.5749H50.644V32.2844H49.2378V21.6203H55.8442V22.7776H50.644V26.425H55.1191V27.5749ZM56.7964 28.2487C56.7964 27.4724 56.9478 26.7741 57.2505 26.154C57.5581 25.5339 57.9829 25.0554 58.5249 24.7185C59.0718 24.3816 59.6943 24.2131 60.3926 24.2131C61.4717 24.2131 62.3433 24.5866 63.0073 25.3337C63.6763 26.0808 64.0107 27.0744 64.0107 28.3147V28.4099C64.0107 29.1814 63.8618 29.8747 63.564 30.49C63.271 31.1003 62.8486 31.5764 62.2969 31.9182C61.75 32.26 61.1201 32.4309 60.4072 32.4309C59.333 32.4309 58.4614 32.0573 57.7925 31.3103C57.1284 30.5632 56.7964 29.5744 56.7964 28.344V28.2487ZM58.1587 28.4099C58.1587 29.2888 58.3613 29.9944 58.7666 30.5266C59.1768 31.0588 59.7236 31.3249 60.4072 31.3249C61.0957 31.3249 61.6426 31.0564 62.0479 30.5193C62.4531 29.9773 62.6558 29.2204 62.6558 28.2487C62.6558 27.3796 62.4482 26.6765 62.0332 26.1394C61.623 25.5974 61.0762 25.3264 60.3926 25.3264C59.7236 25.3264 59.1841 25.5925 58.7739 26.1247C58.3638 26.657 58.1587 27.4187 58.1587 28.4099ZM65.3511 28.2487C65.3511 27.4724 65.5024 26.7741 65.8052 26.154C66.1128 25.5339 66.5376 25.0554 67.0796 24.7185C67.6265 24.3816 68.249 24.2131 68.9473 24.2131C70.0264 24.2131 70.8979 24.5866 71.562 25.3337C72.231 26.0808 72.5654 27.0744 72.5654 28.3147V28.4099C72.5654 29.1814 72.4165 29.8747 72.1187 30.49C71.8257 31.1003 71.4033 31.5764 70.8516 31.9182C70.3047 32.26 69.6748 32.4309 68.9619 32.4309C67.8877 32.4309 67.0161 32.0573 66.3472 31.3103C65.6831 30.5632 65.3511 29.5744 65.3511 28.344V28.2487ZM66.7134 28.4099C66.7134 29.2888 66.916 29.9944 67.3213 30.5266C67.7314 31.0588 68.2783 31.3249 68.9619 31.3249C69.6504 31.3249 70.1973 31.0564 70.6025 30.5193C71.0078 29.9773 71.2104 29.2204 71.2104 28.2487C71.2104 27.3796 71.0029 26.6765 70.5879 26.1394C70.1777 25.5974 69.6309 25.3264 68.9473 25.3264C68.2783 25.3264 67.7388 25.5925 67.3286 26.1247C66.9185 26.657 66.7134 27.4187 66.7134 28.4099ZM73.9351 28.2561C73.9351 27.0403 74.2231 26.0637 74.7993 25.3264C75.3755 24.5842 76.1299 24.2131 77.0625 24.2131C77.9902 24.2131 78.7251 24.5305 79.2671 25.1653V21.0344H80.6221V32.2844H79.377L79.311 31.4348C78.769 32.0988 78.0146 32.4309 77.0479 32.4309C76.1299 32.4309 75.3804 32.0549 74.7993 31.3029C74.2231 30.551 73.9351 29.5695 73.9351 28.3586V28.2561ZM75.29 28.4099C75.29 29.3083 75.4756 30.0114 75.8467 30.5193C76.2178 31.0271 76.7305 31.281 77.3848 31.281C78.2441 31.281 78.8716 30.8952 79.2671 30.1237V26.4836C78.8618 25.7365 78.2393 25.363 77.3994 25.363C76.7354 25.363 76.2178 25.6194 75.8467 26.132C75.4756 26.6447 75.29 27.404 75.29 28.4099Z" fill="black"/>
</g>
<defs>
<filter id="filter0_d_230_22229" x="0.513245" y="2.28439" width="103.826" height="40" filterUnits="userSpaceOnUse" color-interpolation-filters="sRGB">
<feFlood flood-opacity="0" result="BackgroundImageFix"/>
<feColorMatrix in="SourceAlpha" type="matrix" values="0 0 0 0 0 0 0 0 0 0 0 0 0 0 0 0 0 0 127 0" result="hardAlpha"/>
<feOffset dy="4"/>
<feGaussianBlur stdDeviation="2"/>
<feComposite in2="hardAlpha" operator="out"/>
<feColorMatrix type="matrix" values="0 0 0 0 0 0 0 0 0 0 0 0 0 0 0 0 0 0 0.25 0"/>
<feBlend mode="normal" in2="BackgroundImageFix" result="effect1_dropShadow_230_22229"/>
<feBlend mode="normal" in="SourceGraphic" in2="effect1_dropShadow_230_22229" result="shape"/>
</filter>
</defs>
</svg>
